<?xml version="1.0" encoding="UTF-8"?>
<!DOCTYPE svg PUBLIC "-//W3C//DTD SVG 1.1//EN" "http://www.w3.org/Graphics/SVG/1.1/DTD/svg11.dtd">
<svg xmlns="http://www.w3.org/2000/svg" version="1.1" width="32px" height="32px" style="shape-rendering:geometricPrecision; text-rendering:geometricPrecision; image-rendering:optimizeQuality; fill-rule:evenodd; clip-rule:evenodd" xmlns:xlink="http://www.w3.org/1999/xlink">
<g><path style="opacity:1" fill="#f5675e" d="M 18.5,6.5 C 16.4021,5.51552 14.4021,5.84885 12.5,7.5C 14.0644,0.179125 16.0644,-0.154208 18.5,6.5 Z"/></g>
<g><path style="opacity:0.999" fill="#f03e39" d="M 18.5,6.5 C 22.5985,13.859 26.5985,21.359 30.5,29C 25.8374,28.6792 21.504,27.1792 17.5,24.5C 18.7175,23.8386 20.0508,23.1719 21.5,22.5C 21.3764,21.8933 21.0431,21.56 20.5,21.5C 18.7742,19.0578 17.2742,16.3911 16,13.5C 14.3952,16.1915 12.8952,18.8582 11.5,21.5C 10.9569,21.56 10.6236,21.8933 10.5,22.5C 11.9492,23.1719 13.2825,23.8386 14.5,24.5C 10.6298,26.0169 6.79643,27.6836 3,29.5C 2.5,29.1667 2,28.8333 1.5,28.5C 4.97092,21.2181 8.63758,14.2181 12.5,7.5C 14.4021,5.84885 16.4021,5.51552 18.5,6.5 Z"/></g>
<g><path style="opacity:0.329" fill="#f79d9e" d="M 11.5,21.5 C 12.7175,22.1614 14.0508,22.8281 15.5,23.5C 15.3764,24.1067 15.0431,24.44 14.5,24.5C 13.2825,23.8386 11.9492,23.1719 10.5,22.5C 10.6236,21.8933 10.9569,21.56 11.5,21.5 Z"/></g>
<g><path style="opacity:0.31" fill="#f58f91" d="M 20.5,21.5 C 21.0431,21.56 21.3764,21.8933 21.5,22.5C 20.0508,23.1719 18.7175,23.8386 17.5,24.5C 16.9569,24.44 16.6236,24.1067 16.5,23.5C 17.9492,22.8281 19.2825,22.1614 20.5,21.5 Z"/></g>
</svg>
